<svg xmlns="http://www.w3.org/2000/svg" width="273.732" height="271.732" viewBox="0 0 273.732 271.732">
  <g id="Group_1" data-name="Group 1" transform="translate(-110.888 -63.762)">
    <path id="Path_1" data-name="Path 1" d="M988.41,585.454s-21.15,44.693,0,94.346" transform="translate(-859 -433)" fill="none" stroke="#e2e0de" stroke-width="2"/>
    <path id="Path_2" data-name="Path 2" d="M988.41,585.454s-21.15,44.693,0,94.346" transform="translate(880.338 -906.083) rotate(90)" fill="none" stroke="#e2e0de" stroke-width="2"/>
    <path id="Path_3" data-name="Path 3" d="M988.41,585.454s-21.15,44.693,0,94.346" transform="translate(1355.42 832.255) rotate(180)" fill="none" stroke="#e2e0de" stroke-width="2"/>
    <path id="Path_4" data-name="Path 4" d="M988.41,585.454s-21.15,44.693,0,94.346" transform="translate(-384.917 1306.338) rotate(-90)" fill="none" stroke="#e2e0de" stroke-width="2"/>
    <path id="Path_5" data-name="Path 5" d="M969.888,632.628H985.62" transform="translate(-859 -433)" fill="none" stroke="#e2e0de" stroke-width="2"/>
    <path id="Path_6" data-name="Path 6" d="M969.888,632.628H985.62" transform="translate(-601 -433)" fill="none" stroke="#e2e0de" stroke-width="2"/>
    <path id="Path_7" data-name="Path 7" d="M969.888,632.628H985.62" transform="translate(-384.874 1049.382) rotate(-90)" fill="none" stroke="#e2e0de" stroke-width="2"/>
    <path id="Path_8" data-name="Path 8" d="M969.888,632.628H985.62" transform="translate(-384.874 1305.382) rotate(-90)" fill="none" stroke="#e2e0de" stroke-width="2"/>
  </g>
</svg>
